<svg xmlns="http://www.w3.org/2000/svg" viewBox="0 0 64 64" fill="none">
  
  <g stroke="#2b2440" stroke-width="2.6" stroke-linecap="round">
    <line x1="26" y1="48" x2="26" y2="56"></line>
    <line x1="38" y1="48" x2="38" y2="56"></line>
  </g>
  
  <path d="M20 40&#xA;           C 12 40 11 31 18 29&#xA;           C 14 22 23 18 28 23&#xA;           C 30 16 41 16 43 23&#xA;           C 50 20 57 28 51 33&#xA;           C 56 38 50 46 43 43&#xA;           C 39 49 25 49 20 40 Z" fill="#ffffff" stroke="#2b2440" stroke-width="2.4" stroke-linejoin="round"></path>
  
  <ellipse cx="24" cy="34" rx="9" ry="10" fill="#efe4d2" stroke="#2b2440" stroke-width="2.2"></ellipse>
  
  <ellipse cx="16.5" cy="31" rx="3.4" ry="5" fill="#efe4d2" stroke="#2b2440" stroke-width="2" transform="rotate(-25 16.5 31)"></ellipse>
  
  <circle cx="21" cy="33" r="1.5" fill="#2b2440"></circle>
  <circle cx="28" cy="33" r="1.5" fill="#2b2440"></circle>
</svg>