<svg xmlns="http://www.w3.org/2000/svg" viewBox="0 0 360 360" fill="none">
  
  <path d="M286 70 a 30 30 0 1 0 16 55 A 23 23 0 1 1 286 70 Z" fill="#e7b54e"></path>

  
  <g fill="#e7b54e">
    <path d="M86 84 c1.2 7 2.4 8.5 8.6 10.2 c-6.2 1.7-7.4 3.2-8.6 10.2 c-1.2-7-2.4-8.5-8.6-10.2 c6.2-1.7 7.4-3.2 8.6-10.2 Z"></path>
    <path d="M300 200 c1 6 2 7 7 8.5 c-5 1.5-6 2.5-7 8.5 c-1-6-2-7-7-8.5 c5-1.5 6-2.5 7-8.5 Z"></path>
    <path d="M64 200 c0.8 4.6 1.6 5.6 5.6 6.8 c-4 1.2-4.8 2.2-5.6 6.8 c-0.8-4.6-1.6-5.6-5.6-6.8 c4-1.2 4.8-2.2 5.6-6.8 Z"></path>
    <circle cx="140" cy="70" r="3"></circle>
    <circle cx="232" cy="92" r="3.4"></circle>
    <circle cx="300" cy="150" r="2.6"></circle>
  </g>

  
  <path d="M70 150 c-12 0-16-10-7-14 c-4-9 7-15 14-9 c4-9 20-9 24 1 c11-5 23 4 19 14 c8 2 5 13-4 13 c-6 4-52 4-46-5 Z" fill="#ffffff" stroke="#dbe6f0" stroke-width="2" opacity="0.85"></path>

  
  <path d="M120 300&#xA;           C 78 300 66 262 96 248&#xA;           C 82 220 120 202 142 226&#xA;           C 158 192 214 192 230 226&#xA;           C 264 206 318 224 312 260&#xA;           C 346 264 338 304 300 302&#xA;           C 280 314 144 316 120 300 Z" fill="#ffffff" stroke="#d8e4ef" stroke-width="2.4" stroke-linejoin="round"></path>

  
  <g>
    <g stroke="#c9b59a" stroke-width="5" stroke-linecap="round">
      <line x1="168" y1="256" x2="168" y2="276"></line>
      <line x1="192" y1="258" x2="192" y2="280"></line>
      <line x1="216" y1="256" x2="216" y2="276"></line>
    </g>
    <g fill="#ffffff" stroke="#cdd8e2" stroke-width="2.4">
      <circle cx="168" cy="226" r="24"></circle>
      <circle cx="196" cy="216" r="26"></circle>
      <circle cx="224" cy="226" r="22"></circle>
      <circle cx="210" cy="244" r="24"></circle>
      <circle cx="180" cy="246" r="22"></circle>
    </g>
    <ellipse cx="144" cy="238" rx="21" ry="23" fill="#efe4d2" stroke="#cbb79c" stroke-width="2.4"></ellipse>
    <ellipse cx="130" cy="221" rx="8" ry="12" fill="#e2d2ba" stroke="#cbb79c" stroke-width="2.2" transform="rotate(-28 130 221)"></ellipse>
    <path d="M134 238 q7 7 14 0" stroke="#2b2440" stroke-width="3" stroke-linecap="round" fill="none"></path>
    <circle cx="148" cy="248" r="2.6" fill="#b69a78"></circle>
    <ellipse cx="156" cy="245" rx="6" ry="4" fill="#eeb0bc" opacity="0.55"></ellipse>
    <g fill="#9bb6cf">
      <text x="246" y="196" font-family="Georgia, serif" font-size="24">z</text>
      <text x="266" y="176" font-family="Georgia, serif" font-size="17">z</text>
    </g>
  </g>
</svg>